SplineFontDB: 3.0
FontName: GoudyBookletter1911
FullName: Goudy Bookletter 1911
FamilyName: Goudy Bookletter 1911
Weight: Regular
Copyright: Copyright (c) 2009 Barry Schwartz\n\nPermission is hereby granted, free of charge, to any person obtaining a copy\nof this software and associated documentation files (the "Software"), to deal\nin the Software without restriction, including without limitation the rights\nto use, copy, modify, merge, publish, distribute, sublicense, and/or sell\ncopies of the Software, and to permit persons to whom the Software is\nfurnished to do so, subject to the following conditions:\n\nThe above copyright notice and this permission notice shall be included in\nall copies or substantial portions of the Software.\n\nTHE SOFTWARE IS PROVIDED "AS IS", WITHOUT WARRANTY OF ANY KIND, EXPRESS OR\nIMPLIED, INCLUDING BUT NOT LIMITED TO THE WARRANTIES OF MERCHANTABILITY,\nFITNESS FOR A PARTICULAR PURPOSE AND NONINFRINGEMENT. IN NO EVENT SHALL THE\nAUTHORS OR COPYRIGHT HOLDERS BE LIABLE FOR ANY CLAIM, DAMAGES OR OTHER\nLIABILITY, WHETHER IN AN ACTION OF CONTRACT, TORT OR OTHERWISE, ARISING FROM,\nOUT OF OR IN CONNECTION WITH THE SOFTWARE OR THE USE OR OTHER DEALINGS IN\nTHE SOFTWARE.\n
UComments: "14pt handset: cut 3200-dpi samples 640 pixels high.+AAoACgAA-11pt: cut 3200-dpi samples 640 pixels high, then scale them to about 112%." 
Version: 001.000
ItalicAngle: 0
UnderlinePosition: -204
UnderlineWidth: 102
Ascent: 1548
Descent: 500
LayerCount: 3
Layer: 0 0 "Back"  1
Layer: 1 0 "Fore"  0
Layer: 2 0 "backup"  1
XUID: [1021 658 797806517 11473725]
FSType: 0
OS2Version: 0
OS2_WeightWidthSlopeOnly: 0
OS2_UseTypoMetrics: 1
CreationTime: 1249326201
ModificationTime: 1250830901
OS2TypoAscent: 0
OS2TypoAOffset: 1
OS2TypoDescent: 0
OS2TypoDOffset: 1
OS2TypoLinegap: 184
OS2WinAscent: 0
OS2WinAOffset: 1
OS2WinDescent: 0
OS2WinDOffset: 1
HheadAscent: 0
HheadAOffset: 1
HheadDescent: 0
HheadDOffset: 1
OS2Vendor: 'PfEd'

StartChar: a
Encoding: 97 97 0
Width: 851
VWidth: 6
Flags: HW
HStem: -23 80<259 463> -12 116<613 789> 787 86<258 462>
VStem: 70 156<86 329> 510 146<110 403 472 741>
LayerCount: 3
Fore
SplineSet
355 787 m 0xb8
 211 787 242 626 140 626 c 0
 99 626 71 663 71 705 c 0
 71 814 251 873 380 873 c 0
 547 873 656 766 656 618 c 2
 656 218 l 2
 656 121 702 104 718 104 c 0
 795 104 806 172 822 172 c 0
 836 172 844 164 844 147 c 0
 844 58 763 -12 668 -12 c 0x78
 559 -12 534 82 534 82 c 1
 532 80 484 -23 303 -23 c 0
 189 -23 70 8 70 172 c 0
 70 361 198 413 299 437 c 0
 469 477 510 462 510 526 c 2
 510 582 l 2
 510 689 479 787 355 787 c 0xb8
226 220 m 0
 226 127 252 57 357 57 c 0xb8
 436 57 510 108 510 206 c 2
 510 403 l 1
 290 364 226 363 226 220 c 0
EndSplineSet
EndChar

StartChar: b
Encoding: 98 98 1
Width: 982
VWidth: 1000
Flags: MW
HStem: -12 75<335.106 649.578> 741 120<380.693 641.643> 1398 20G<242 274>
VStem: 132 156<103.107 692.909 730 1226.88> 799 143<244.275 572.128>
LayerCount: 3
Fore
SplineSet
141 1205 m 0
 141 1221 83 1233 44 1251 c 0
 28 1258 19 1273 19 1290 c 0
 19 1349 69 1349 215 1410 c 0
 223 1414 237 1418 247 1418 c 0
 301 1418 311 1395 311 1346 c 0
 311 1259 294 998 284 730 c 1
 300 745 372 861 550 861 c 0
 745 861 942 728 942 450 c 0
 942 252 828 -12 478 -12 c 0
 368 -12 300 5 241 5 c 0
 198 5 194 -36 167 -36 c 0
 148 -36 132 -28 132 5 c 0
 132 26 142 498 142 969 c 0
 142 1050 141 1164 141 1205 c 0
288 245 m 2
 288 124 320 63 486 63 c 0
 704 63 799 213 799 372 c 0
 799 584 679 741 481 741 c 0
 416 741 373 721 344 702 c 0
 289 665 288 607 288 455 c 2
 288 245 l 2
EndSplineSet
Layer: 2
SplineSet
14 1294 m 4
 14 1342 44 1340 222 1414 c 4
 234 1419 245 1422 256 1422 c 4
 284 1422 306 1402 306 1346 c 4
 306 1259 289 998 279 730 c 5
 295 745 372 861 550 861 c 4
 745 861 942 728 942 450 c 4
 942 225 798 -16 498 -16 c 4
 388 -16 300 0 241 0 c 4
 198 0 189 -36 162 -36 c 4
 143 -36 127 -18 127 -2 c 4
 127 19 142 498 142 969 c 4
 142 1050 141 1130 140 1208 c 5
 103 1248 14 1242 14 1294 c 4
486 63 m 4
 704 63 799 213 799 372 c 4
 799 551 679 741 481 741 c 4
 299 741 283 601 283 455 c 6
 283 363 l 6
 283 152 284 63 486 63 c 4
EndSplineSet
EndChar

StartChar: c
Encoding: 99 99 2
Width: 835
VWidth: 1013
Flags: W
HStem: -20 131<337.389 629.672> 758 113<284.732 531.398>
VStem: 40 149<281.732 613.955>
LayerCount: 3
Fore
SplineSet
805 202 m 0
 805 119 632 -20 435 -20 c 0
 217 -20 40 152 40 404 c 0
 40 681 249 871 459 871 c 0
 618 871 747 797 747 720 c 0
 747 674 706 636 665 636 c 0
 592 636 539 758 390 758 c 0
 300 758 189 690 189 466 c 0
 189 319 278 111 487 111 c 0
 632.15234375 111 698.036132812 173.580078125 737 208.356445312 c 0
 755.74609375 225.086914062 770.333007812 231.4140625 781.106445312 231.4140625 c 0
 797.434570312 231.4140625 805 216.877929688 805 202 c 0
EndSplineSet
EndChar

StartChar: d
Encoding: 100 100 3
Width: 988
VWidth: 1010
Flags: W
HStem: -28 21G<716.5 727> -10 122<355.852 621.343> 782 71<325.7 646.437> 1385 20G<816 846>
VStem: 40 148<285.649 625.828> 703 138<160.299 702.27> 708 152<822.882 1220.03>
LayerCount: 3
Fore
SplineSet
841 223 m 0x7c
 841 168 842 159 865 159 c 2
 915 159 l 2
 932 159 958 159 958 132 c 0
 958 89 860 78 757 -7 c 0
 741 -21 732 -28 722 -28 c 0xbc
 711 -28 701 -22 701 1 c 2
 701 124 l 1
 674 99 646 -10 456 -10 c 0
 260 -10 40 130 40 412 c 0
 40 642 173 853 481 853 c 0
 617 853 708 814 708 814 c 1
 704 1202 l 2
 704 1228 555 1218 555 1270 c 0
 555 1299 611 1316 711 1356 c 0
 776 1382 801 1405 831 1405 c 0
 861 1405 869 1381 869 1346 c 0
 869 1312 861 1241 860 1203 c 0x7a
 855 948 841 653 841 223 c 0x7c
472 782 m 0
 276 782 188 647 188 466 c 0
 188 234 360 112 518 112 c 0x7c
 672 112 702 174 703 339 c 2
 705 676 l 2
 705 744 587 782 472 782 c 0
EndSplineSet
EndChar

StartChar: e
Encoding: 101 101 4
Width: 842
VWidth: 1000
Flags: W
HStem: -27 122<324.632 623.762> 771 106<259.731 495.49>
VStem: 40 141<340.173 634.041> 590 201<600.647 688.995>
LayerCount: 3
Fore
SplineSet
802 189 m 0
 802 124 627 -27 451 -27 c 0
 256 -27 40 81 40 417 c 0
 40 709 235 877 424 877 c 0
 622 877 791 693 791 624 c 0
 791 593 696 566 678 560 c 2
 186 386 l 1
 188 362 223 95 482 95 c 0
 665 95 732 221 777 221 c 0
 793 221 802 207 802 189 c 0
363 771 m 0
 217 771 181 614 181 497 c 0
 181 477 182 464 182 464 c 1
 541 599 l 2
 568 609 590 615 590 632 c 0
 590 658 478 771 363 771 c 0
EndSplineSet
EndChar

StartChar: f
Encoding: 102 102 5
Width: 611
VWidth: 870
Flags: W
HStem: -5 103<36.79 176 338.19 483.63> 739 115<29.5781 178 334 568.922> 1336 132<459.886 633.086>
VStem: 176 158<98.5371 739 854 1120.08>
LayerCount: 3
Fore
SplineSet
141 95 m 2
 174 95 176 107 176 141 c 2
 176 198 l 2
 176 252 178 198 178 739 c 1
 50 740 l 2
 37 740 26 746 26 783 c 0
 26 820 47 854 66 854 c 2
 183 854 l 1
 183 889 l 2
 183 1263 426 1468 620 1468 c 0
 761 1468 799 1403 799 1369 c 0
 799 1332 771 1267 713 1267 c 0
 637 1267 595 1336 528 1336 c 0
 378 1336 328 1126 328 902 c 2
 328 854 l 1
 551 854 l 2
 564 854 571 833 571 802 c 0
 571 763 546 739 523 739 c 2
 334 739 l 1
 334 561 334 383 334 205 c 0
 334 106 351 98 392 98 c 0
 408 98 423 99 434 99 c 0
 483 99 484 58 484 46 c 0
 484 7 452 -5 410 -5 c 0
 399 -5 294 0 255 0 c 0
 225 0 94 -6 84 -6 c 0
 56 -6 35 12 35 36 c 0
 35 77 60 95 93 95 c 2
 141 95 l 2
EndSplineSet
EndChar

StartChar: g
Encoding: 103 103 6
Width: 901
VWidth: 874
Flags: HMW
HStem: -495 83<284.364 678.899> 221 89<295.623 515.958> 797 74<281.117 489.623>
VStem: 47 112<-320.291 -130.455> 58 148<407.142 705.647> 66 112<67.405 186.02> 576 156<397.079 712.262> 746 116<-357.285 -161.012>
LayerCount: 3
Fore
SplineSet
178 127 m 0
 178 68 273 29 422 29 c 0
 497 29 548 34 592 34 c 0
 729 34 862 -40 862 -214 c 0
 862 -324 802 -495 460 -495 c 0
 98 -495 47 -339 47 -247 c 0
 47 -107 198 -60 198 -60 c 1
 198 -60 66 -5 66 85 c 0
 66 185 209 273 209 273 c 1
 209 273 58 360 58 548 c 0
 58 685 166 871 389 871 c 0
 550 871 559 816 642 816 c 0
 723 816 707 909 770 909 c 0
 812 909 841 865 841 828 c 0
 841 751 784 731 750 731 c 0
 721 731 671 742 668 743 c 1
 668 743 732 678 732 566 c 0
 732 366 562 221 403 221 c 0
 337 221 300 237 274 237 c 0
 255 237 178 170 178 127 c 0
159 -228 m 0
 159 -351 339 -412 498 -412 c 0
 746 -412 746 -286 746 -248 c 0
 746 -88 504 -130 320 -98 c 0
 277 -91 234 -76 234 -76 c 1
 234 -76 159 -103 159 -228 c 0
386 797 m 0
 278 797 206 713 206 598 c 0
 206 346 355 310 418 310 c 0
 481 310 576 362 576 520 c 0
 576 664 521 797 386 797 c 0
EndSplineSet
EndChar

StartChar: h
Encoding: 104 104 7
Width: 1088
VWidth: 994
Flags: W
HStem: -2 81<34.2771 186.213 350.568 503.847 604.325 760.125 920.945 1058.39> 738 118<429.972 661.596> 1399 20G<291 327.5>
VStem: 199 145<84.3171 675.909 703 1185.4> 771 143<82.2504 616.527>
LayerCount: 3
Fore
SplineSet
34 32 m 0
 34 75 58 79 89 79 c 0
 195 79 199 82 199 295 c 0
 199 684 204 342 204 1079 c 0
 204 1129 203 1174 203 1211 c 0
 203 1231.20107047 81.6137420034 1228.35663859 63 1260 c 0
 58 1268 56 1279 56 1287 c 0
 56 1331 89 1336 193 1382 c 0
 232 1399 275 1419 307 1419 c 0
 348 1419 354 1394 354 1372 c 0
 354 1337 353 1262 335 703 c 1
 379 765 421 856 600 856 c 0
 674 856 857 818 902 560 c 0
 912 500 911 355 914 271 c 0
 919 89 906 82 1003 78 c 0
 1043 76 1059 61 1059 30 c 0
 1059 -13 1035 -14 1015 -14 c 0
 1004 -14 917 2 820 2 c 0
 732 2 675 -6 655 -6 c 0
 628 -6 604 2 604 33 c 0
 604 81 654 74 714 80 c 0
 761 84 771 99 771 310 c 0
 771 574 729 652 642 708 c 0
 609 730 572 738 536 738 c 0
 348 738 344 600 344 417 c 2
 344 359 l 2
 344 278 345 235 345 195 c 0
 345 100 347 82 411 77 c 0
 451 74 504 76 504 35 c 0
 504 -8 483 -9 463 -9 c 0
 425 -9 363 6 266 6 c 0
 163 6 87 -2 70 -2 c 0
 56 -2 34 -1 34 32 c 0
EndSplineSet
EndChar

StartChar: i
Encoding: 105 105 8
Width: 526
VWidth: 857
Flags: HW
HStem: -9 75<31.1951 179.925 336.474 484.714> 829 20G<308 326.5> 1111 170<259.998 406.567>
VStem: 188 144<70.2113 656.248> 250 171<1129.42 1270.18>
LayerCount: 3
Fore
SplineSet
191 619 m 0
 188 671 44 656 44 707 c 0
 44 729 61 739 96 754 c 0
 319 847 298 849 318 849 c 0
 335 849 342 838 342 822 c 0
 342 770 333 728 333 307 c 0
 333 244 332 198 332 165 c 0
 332 58 348 75 438 63 c 0
 460 60 485 59 485 23 c 0
 485 8 465 -9 423 -9 c 0
 418 -9 362 0 251 0 c 0
 160 0 100 -9 66 -9 c 0
 40 -9 31 3 31 24 c 0
 31 66 61 66 95 66 c 0
 173 66 183 82 188 158 c 0
 193 241 197 397 197 427 c 0
 197 477 193 586 191 619 c 0
336 1115 m 0
 324 1115 250 1120 250 1207 c 0
 250 1250 285 1292 337 1292 c 0
 388 1292 422 1250 422 1207 c 0
 422 1133 363 1115 336 1115 c 0
EndSplineSet
EndChar

StartChar: j
Encoding: 106 106 9
Width: 627
VWidth: 865
Flags: HW
HStem: -424 148<67.8517 238.288> 865 20G<414.5 434.5> 1106 178<339.908 494.916>
VStem: 302 150<-180.947 830> 329 180<1120 1272.38>
LayerCount: 3
Fore
SplineSet
452 830 m 0xf0
 452 333.513671875 445 149.166992188 445 -74 c 0
 445 -118 406 -198 368 -241 c 0
 222 -405 206 -424 121 -424 c 0
 62 -424 14 -386 14 -349 c 0
 14 -293 88 -248 109 -248 c 0
 155 -248 173 -276 215 -276 c 0
 277 -276 300 -179 300 -21 c 0
 300 87 302 174 302 685 c 0
 302 705 166 711 166 741 c 0
 166 782 196 778 296 823 c 0
 358 851 403 885 426 885 c 0
 443 885 452 865 452 830 c 0xf0
329 1194 m 0xe8
 329 1254 374 1284 420 1284 c 0
 464 1284 509 1259 509 1199 c 0
 509 1145 464 1106 420 1106 c 0
 360 1106 329 1148 329 1194 c 0xe8
EndSplineSet
EndChar

StartChar: k
Encoding: 107 107 10
Width: 938
VWidth: 870
Flags: HMW
HStem: 0 78<51 147 305 442 774 886> 747 80<669 841> 1389 17G<255 279>
VStem: 152 137<79 329 432 1268>
LayerCount: 3
Fore
SplineSet
157 1216 m 2
 157 1265 49 1281 49 1312 c 0
 49 1333 83 1344 94 1347 c 2
 94 1347 243 1406 267 1406 c 0
 290 1406 295 1384 295 1364 c 2
 288 432 l 1
 432 583 545 683 545 722 c 0
 545 775 455 754 455 799 c 0
 455 807 459 827 509 827 c 0
 523 827 549 823 643 823 c 0
 731 823 774 827 790 827 c 0
 820 827 842 824 842 797 c 0
 842 758 808 766 735 747 c 0
 686 734 603 653 539 587 c 2
 447 492 l 1
 644 243 l 1
 788 64 816 76 851 67 c 0
 866 64 886 53 886 31 c 0
 886 16 870 -4 828 -4 c 0
 797 -4 751 0 673 0 c 0
 659 0 560 -4 531 -4 c 0
 505 -4 478 7 478 28 c 0
 478 89 573 47 573 102 c 0
 573 155 394 366 364 405 c 1
 290 329 l 1
 294 82 280 78 396 68 c 0
 418 66 442 53 442 31 c 0
 442 16 427 -4 385 -4 c 0
 322 -4 287 0 229 0 c 0
 195 0 140 -4 103 -4 c 0
 77 -4 50 7 50 28 c 0
 50 64 78 63 95 67 c 0
 152 82 152 93 152 177 c 2
 157 1216 l 2
EndSplineSet
EndChar

StartChar: l
Encoding: 108 108 11
Width: 503
VWidth: 870
Flags: HW
HStem: -9 78<39.1801 173.211 337.527 476.989> 1391 20G<278.5 315.5>
VStem: 177 153<78.7666 652.738>
LayerCount: 3
Fore
SplineSet
184 1181 m 1
 70 1209 55 1206 55 1243 c 0
 55 1291 85 1296 170 1348 c 0
 227 1382 254 1411 303 1411 c 0
 328 1411 350 1398 350 1367 c 0
 350 1230 330 1367 330 192 c 0
 330 70 342 86 428 69 c 0
 462 62 477 50 477 31 c 0
 477 16 476 -9 434 -9 c 0
 388 -9 312 0 270 0 c 0
 202 0 119 -14 90 -14 c 0
 64 -14 38 -3 38 18 c 0
 38 76 105 67 141 76 c 0
 167 82 177 93 177 156 c 2
 184 1181 l 1
EndSplineSet
EndChar

StartChar: m
Encoding: 109 109 12
Width: 1436
VWidth: 870
Flags: HW
HStem: 2 77<69.4767 182.621 329.626 470.974 514.362 658.011 817.047 966.678 1023.96 1156.19 1316.54 1436.45> 750 112<413.661 607.012 877.203 1080.7> 861 20G<290.5 310.5>
VStem: 185 142<80.0975 688.656> 669 143<83.9813 682.422> 1163 149<86.6203 653.206>
LayerCount: 3
Fore
SplineSet
476 750 m 0xdc
 392 750 327 678 327 574 c 2
 327 159 l 2
 327 84 342 82 384 79 c 0
 436 75 471 76 471 41 c 0
 471 18 461 2 419 2 c 0
 363 2 327 6 263 6 c 0
 234 6 164 2 121 2 c 0
 95 2 69 13 69 34 c 0
 69 70 96 76 113 77 c 0
 183 81 184 81 185 177 c 2
 188 634 l 2
 188 672 174 674 142 688 c 2
 94 709 l 2
 78 716 71 726 71 738 c 0
 71 781 116 786 185 824 c 0
 233 850 280 881 301 881 c 0xbc
 320 881 327 864 327 854 c 2
 327 727 l 1
 342 741 414 862 540 862 c 0
 716 862 785 720 785 720 c 1
 785 720 864 858 1003 858 c 0
 1301 858 1313 574 1313 370 c 0
 1313 326 1312 274 1312 220 c 0
 1312 81 1317 87 1373 80 c 0
 1408 76 1437 71 1437 33 c 0
 1437 18 1422 -2 1380 -2 c 0
 1317 -2 1287 2 1224 2 c 0
 1189 2 1096 -2 1070 -2 c 0
 1044 -2 1023 9 1023 30 c 0
 1023 94 1108 66 1135 86 c 0
 1153 99 1163 127 1163 160 c 2
 1163 411 l 2
 1163 448 1162 479 1160 506 c 0
 1146 701 1047 746 971 746 c 0
 856 746 815 665 811 663 c 1
 811 663 812 631 812 614 c 2
 812 163 l 2
 812 86 830 82 932 73 c 0
 966 70 967 47 967 32 c 0
 967 19 966 -2 918 -2 c 0
 906 -2 783 6 740 6 c 0
 724 6 578 -2 546 -2 c 0
 524 -2 514 13 514 34 c 0
 514 74 543 74 570 75 c 2
 601 76 l 2
 667 78 669 76 669 456 c 0
 669 617 650 750 476 750 c 0xdc
EndSplineSet
EndChar

StartChar: n
Encoding: 110 110 13
Width: 1068
VWidth: 870
Flags: HW
HStem: 0 80<50.9088 190.629 341.961 484.805 613.215 763.797 911.081 1049.98> 760 123<471.166 695.013>
VStem: 197 142<81.349 683.877> 769 146<80.0998 683.446>
LayerCount: 3
Fore
SplineSet
97 -8 m 0
 55 -8 50 19 50 30 c 0
 50 70 85 75 138 80 c 0
 205 86 195 71 197 444 c 0
 197 500 195 588 195 668 c 0
 195 682 176 688 153 693 c 2
 130 698 l 2
 80 708 66 715 66 738 c 0
 66 755 66 761 97 780 c 2
 288 893 l 2
 303 902 318 913 329 913 c 0
 339 913 346 904 346 874 c 2
 344 747 l 1
 389 780 492 883 623 883 c 0
 745 883 850 805 889 702 c 0
 910 648 915 583 915 511 c 2
 915 463 l 2
 915 388 909 281 909 178 c 0
 909 94 911 80 964 80 c 2
 998 80 l 2
 1024 80 1050 75 1050 39 c 0
 1050 24 1044 -8 1000 -8 c 0
 987 -8 890 0 832 0 c 0
 816 0 704 -4 672 -4 c 0
 638 -4 612 7 612 28 c 0
 612 82 659 76 724 80 c 0
 755 82 766 92 766 162 c 0
 766 180 769 162 769 539 c 0
 769 699 662 760 560 760 c 0
 444 760 345 684 344 585 c 0
 343 445 339 165 339 153 c 0
 339 60 380 86 451 73 c 0
 478 68 485 52 485 36 c 0
 485 16 471 -4 435 -4 c 0
 379 -4 310 0 259 0 c 0
 220 0 113 -8 97 -8 c 0
EndSplineSet
EndChar

StartChar: o
Encoding: 111 111 14
Width: 953
VWidth: -7
Flags: W
HStem: -21 82<331.922 614.123> 773 88<309.4 598.342>
VStem: 33 163<221.987 616.531> 746 154<224.176 611.598>
LayerCount: 3
Fore
SplineSet
458 773 m 0
 272 773 196 642 196 423 c 0
 196 240 281 61 459 61 c 0
 683 61 746 231 746 415 c 0
 746 644 612 773 458 773 c 0
466 861 m 0
 686 861 900 717 900 431 c 0
 900 113 652 -21 460 -21 c 0
 196 -21 33 183 33 423 c 0
 33 653 208 861 466 861 c 0
EndSplineSet
EndChar

StartChar: p
Encoding: 112 112 15
Width: 972
VWidth: 870
Flags: HW
HStem: -459 79<8.59409 144.799 294.035 475.896> 0 71<307.354 645.388> 721 131<409.91 635.141> 854 20G<262 271.5>
VStem: 146 144<-374.467 16 100.612 660.476> 785 137<227.833 564.477>
LayerCount: 3
Fore
SplineSet
542 852 m 0
 792 852 922 628 922 456 c 0
 922 91 677 0 490 0 c 0
 400 0 287 16 287 16 c 1
 290 -310 l 2
 291 -393 341 -372 434 -380 c 0
 471 -383 476 -396 476 -416 c 0
 476 -432 472 -456 426 -456 c 0
 414 -456 317 -452 228 -452 c 0
 182 -452 123 -459 62 -459 c 0
 31 -459 8 -458 8 -427 c 0
 8 -384 54 -384 112 -380 c 0
 146 -377 146 -365 146 -278 c 2
 146 -262 l 2
 146 -141 156 613 156 632 c 0
 156 650 155 672 146 674 c 0
 50 691 23 684 23 718 c 0
 23 744 38 745 208 843 c 0
 234 858 257 874 267 874 c 0
 276 874 299 870 299 818 c 0
 299 814 294 726 292 680 c 1
 292 680 385 852 542 852 c 0
480 71 m 0
 724 71 785 237 785 377 c 0
 785 619 616 721 496 721 c 0
 430 721 291 705 291 520 c 2
 290 149 l 2
 290 130 290 113 310 100 c 0
 327 89 399 71 480 71 c 0
EndSplineSet
EndChar

StartChar: q
Encoding: 113 113 16
Width: 1031
VWidth: 870
Flags: HW
HStem: -449 81<559.703 701.762 853.995 998.538> -24 113<358.856 634.56> 760 76<326.461 684.338> 834 20G<842.5 864.5>
VStem: 77 114<259.625 607.367> 717 143<-363.676 104 122.121 728.945>
LayerCount: 3
Fore
SplineSet
193 458 m 0
 193 234.775 328.2 93 531 93 c 0
 705 93 717 170 717 244 c 2
 717 286 l 2
 717 331 718 294 718 662 c 0
 718 719 661 760 491 760 c 0xec
 277 760 193 624 193 458 c 0
756 -438 m 0
 634 -438 613 -449 591 -449 c 0
 571 -449 557 -442 557 -420 c 0
 557 -383 618 -377 660 -368 c 0
 689 -361 709 -342 709 -268 c 0
 709 -131 718 104 718 104 c 1
 708 96 650 -24 470 -24 c 0
 246 -24 77 136 77 391 c 0
 77 645 221 838 524 838 c 0xec
 602 838 700 821 754 821 c 0
 800 821 832 854 853 854 c 0xdc
 876 854 878 821 878 785 c 0
 878 740 861 641 860 552 c 2
 853 -291 l 2
 853 -365 854 -365 960 -366 c 0
 981 -366 999 -374 999 -398 c 0
 999 -439 983 -450 960 -450 c 0
 925 -450 796 -438 756 -438 c 0
EndSplineSet
EndChar

StartChar: r
Encoding: 114 114 17
Width: 749
VWidth: 996
Flags: HW
HStem: -13 89<35.4199 172.61 339.28 524.167> 710 162<478.335 672.864>
VStem: 179 153<80.5214 655.42>
LayerCount: 3
Fore
SplineSet
514 710 m 0
 379.579790916 710 332 609.087009877 332 552 c 2
 332 200 l 2
 332 90 350 84 397 76 c 0
 452 66 525 78 525 24 c 0
 525 4 515 -13 475 -13 c 0
 432 -13 316 5 234 5 c 0
 172 5 102 -6 87 -6 c 0
 58 -6 35 0 35 39 c 0
 35 66 72 69 90 71 c 0
 152 76 178 81 179 175 c 2
 184 667 l 2
 184 679 60 682 60 713 c 2
 60 725 l 2
 60 746 60 762 91 777 c 2
 233 843 l 2
 278 864 292 875 310 875 c 0
 328 875 335 865 335 810 c 2
 335 701 l 1
 335 701 458 872 627 872 c 0
 665 872 723 857 723 776 c 0
 723 724 679 680 636 680 c 0
 583 680 567 710 514 710 c 0
EndSplineSet
Layer: 2
SplineSet
514 718 m 4
 410 718 340 631 340 582 c 4
 338 301 337 266 337 231 c 4
 337 91 338 89 473 83 c 4
 516 81 539 61 539 29 c 4
 539 14 533 -14 481 -14 c 4
 477 -14 314 4 250 4 c 4
 188 4 111 0 96 0 c 4
 67 0 35 0 35 39 c 4
 35 72 72 78 90 80 c 4
 152 85 176 90 177 184 c 6
 184 665 l 6
 184 689 46 696 46 734 c 4
 46 759 56 773 91 790 c 6
 233 856 l 6
 278 877 292 888 310 888 c 4
 328 888 335 878 335 823 c 6
 335 714 l 5
 335 714 458 885 627 885 c 4
 665 885 723 870 723 789 c 4
 723 737 679 693 636 693 c 4
 583 693 567 718 514 718 c 4
EndSplineSet
EndChar

StartChar: s
Encoding: 115 115 18
Width: 718
VWidth: 1008
Flags: W
HStem: -16 96<254.057 531.638> 761 92<235.578 482.019>
VStem: 62 87<171.178 364.273> 110 107<584.127 740.715> 546 70<583.306 687.938> 573 105<121.679 296.953>
LayerCount: 3
Fore
SplineSet
528 804 m 1xd4
 539 812 530 857 566 857 c 0
 600 857 604 837 608 740 c 0
 610 690 616 643 616 638 c 0
 616 614 607 583 585 583 c 0
 563 583 552 600 546 623 c 0
 517 734 402 761 346 761 c 0
 275 761 217 731 217 654 c 0xd8
 217 481 678 600 678 280 c 0
 678 53 490 -16 382 -16 c 0
 336 -16 270 -10 154 38 c 0
 81 68 62 72 62 112 c 0
 62 129 72 192 72 222 c 0
 72 236 73 273 73 302 c 0
 73 342 90 366 117 366 c 0
 148 366 149 329 149 283 c 0xe4
 149 227 163 179 255 123 c 0
 308 91 368 80 416 80 c 0
 508 80 573 140 573 215 c 0
 573 308 477 323 417 343 c 0
 192 419 110 420 110 621 c 0
 110 693 165 853 367 853 c 0
 468 853 528 804 528 804 c 1xd4
EndSplineSet
EndChar

StartChar: t
Encoding: 116 116 19
Width: 747
VWidth: 1013
Flags: W
HStem: -23 136<392.191 573.853> 709 125<382 677.643>
VStem: 200 155<146.22 709.155> 216 148<369.862 713>
LayerCount: 3
Fore
SplineSet
364 1068 m 0xd0
 389 1068 400 1045 400 1017 c 0
 400 987 382 878 382 844 c 2
 382 821 l 1
 468 825 642 834 651 834 c 0
 677 834 685 812 685 792 c 0
 685 779 677 709 628 709 c 0
 602 709 575 710 364 713 c 1xd0
 361 555 355 385 355 369 c 0
 355 170 394 113 472 113 c 0
 602 113 641 232 683 232 c 0
 693 232 715 225 715 196 c 0
 715 125 581 -23 426 -23 c 0
 287 -23 200 46 200 314 c 0xe0
 200 332 216 713 216 713 c 1
 112 713 l 2
 74 713 64 721 64 743 c 0
 64 770 100 781 151 825 c 0
 334 981 303 1068 364 1068 c 0xd0
EndSplineSet
EndChar

StartChar: u
Encoding: 117 117 20
Width: 1016
VWidth: 870
Flags: HMW
HStem: -27 103<385.952 629.32> 750 93<16 130.049 530.701 711.47>
VStem: 132 149<197.253 720.345> 700 144<138.849 651.088>
LayerCount: 3
Fore
SplineSet
712 108 m 1
 695 99 656 -27 472 -27 c 0
 365 -27 132 24 132 318 c 0
 132 381 130 691 130 722 c 0
 130 745 120 748 105 748 c 2
 56 748 l 2
 38 748 16 762 16 780 c 2
 16 811 l 2
 16 829 30 846 49 846 c 0
 118 846 258 854 264 854 c 0
 280 854 298 842 298 814 c 0
 298 772 281 476 281 392 c 0
 281 227 350 76 521 76 c 0
 658 76 697 194 700 285 c 0
 701 326 712 656 712 697 c 0
 712 740 683 750 628 750 c 2
 574 750 l 2
 545 750 530 756 530 812 c 0
 530 837 564 843 582 843 c 2
 833 846 l 2
 863 846 863 835 863 821 c 0
 846 307 844 307 844 178 c 0
 844 145 845 130 896 130 c 2
 932 130 l 2
 977 130 982 126 982 114 c 2
 982 67 l 2
 982 54 977 55 840 11 c 0
 821 5 760 -20 734 -20 c 0
 720 -20 710 -17 710 -1 c 0
 710 69 712 76 712 84 c 2
 712 108 l 1
EndSplineSet
EndChar

StartChar: v
Encoding: 118 118 21
Width: 1052
VWidth: 876
Flags: HW
HStem: -20 21G<552 593> 757 91<31.7381 150.874 908.412 1020.44>
VStem: 30 290<689.5 833> 779 242<637.5 816>
LayerCount: 3
Fore
SplineSet
320 708 m 0
 320 671 564 194 592 194 c 0
 609 194 779 562 779 713 c 0
 779 797 647 719 647 812 c 0
 647 839 684 849 714 849 c 0
 769 849 810 843 887 843 c 0
 917 843 959 848 982 848 c 0
 1011 848 1021 822 1021 810 c 0
 1021 756 972 760 936 747 c 0
 890 730 915 649 693 166 c 0
 665 107 616 -20 570 -20 c 0
 534 -20 500 35 451 117 c 0
 176.381841445 569.748855997 190.500614164 720.356879644 105 757 c 0
 60 776 30 768 30 819 c 0
 30 847 68 848 92 848 c 0
 117 848 131 845 244 845 c 0
 332 845 406 849 422 849 c 0
 452 849 482 840 482 804 c 0
 482 774 468 763 423 763 c 0
 366 763 320 751 320 708 c 0
EndSplineSet
EndChar

StartChar: w
Encoding: 119 119 22
Width: 1606
VWidth: 876
Flags: W
HStem: -20 21G<558 608.5 1108 1147.5> 747 97<1455.17 1568.27> 763 86<34.5498 171.944 345.012 481.913 889.262 1076.58 1207.32 1346.54>
VStem: 34 311<711 831> 542 344<694 814.5> 1347 224<646.5 816>
LayerCount: 3
Fore
SplineSet
834 470 m 1xdc
 732 245 647 -20 570 -20 c 0
 546 -20 500 35 451 117 c 0
 398 205 377 247 224 607 c 0
 175 723 160 755 125 757 c 0
 64 760 34 757 34 817 c 0
 34 845 57 851 81 851 c 0
 106 851 151 845 264 845 c 0
 352 845 406 849 422 849 c 0
 452 849 482 840 482 804 c 0
 482 774 468 763 423 763 c 0xbc
 406 763 395 764 388 764 c 0
 362 764 345 750 345 730 c 0
 345 692 561 185 590 185 c 0
 607 185 724 391 777 572 c 1
 756 619 712 706 699 729 c 0
 658 802 542 731 542 806 c 0
 542 823 551 845 590 845 c 0
 605 845 776 836 834 836 c 0
 891 836 932 842 1010 842 c 0
 1040 842 1077 829 1077 802 c 0
 1077 767 1049 754 1014 754 c 2
 954 754 l 2
 917 754 886 740 886 710 c 0
 886 678 926 604 959 542 c 0
 1133 207 1127 206 1142 206 c 0
 1176 206 1347 580 1347 713 c 0
 1347 745 1321 752 1298 756 c 0
 1257 763 1207 753 1207 812 c 0
 1207 839 1244 845 1274 845 c 0
 1329 845 1360 839 1437 839 c 0
 1467 839 1509 844 1532 844 c 0
 1561 844 1571 822 1571 810 c 0
 1571 756 1522 760 1486 747 c 0
 1442 731 1492 721 1238 166 c 0
 1210 107 1169 -18 1126 -18 c 0
 1090 -18 1036 62 946 243 c 2
 834 470 l 1xdc
EndSplineSet
Layer: 2
SplineSet
1346 713 m 4
 1346 802 1206 720 1206 812 c 4
 1206 839 1243 847 1273 847 c 4
 1328 847 1359 839 1436 839 c 4
 1466 839 1514 842 1537 842 c 4
 1568 842 1570 819 1570 807 c 4
 1570 771 1522 762 1485 744 c 4
 1441 722 1469 676 1238 171 c 4
 1217 126 1169 -13 1127 -13 c 4
 1081 -13 1010 119 946 248 c 6
 834 475 l 5
 834 475 676 93 632 31 c 4
 612 2 604 -15 570 -15 c 4
 510 -15 447 106 377 260 c 4
 188 673 181 761 123 764 c 4
 62 767 36 764 36 824 c 4
 36 852 57 858 81 858 c 4
 106 858 151 850 264 850 c 4
 352 850 406 854 422 854 c 4
 452 854 482 845 482 809 c 4
 482 779 468 768 423 768 c 4
 406 768 395 769 388 769 c 4
 362 769 345 755 345 735 c 4
 345 697 561 190 590 190 c 4
 607 190 724 396 777 577 c 5
 756 624 712 711 699 734 c 4
 658 807 542 736 542 811 c 4
 542 828 551 850 590 850 c 4
 605 850 776 839 834 839 c 4
 891 839 932 847 1010 847 c 4
 1040 847 1077 834 1077 807 c 4
 1077 772 1049 759 1014 759 c 6
 954 759 l 6
 917 759 886 745 886 715 c 4
 886 683 926 609 959 547 c 4
 1133 212 1127 211 1142 211 c 4
 1176 211 1346 580 1346 713 c 4
EndSplineSet
EndChar

StartChar: x
Encoding: 120 120 23
Width: 980
VWidth: 870
Flags: W
HStem: -4 98<787.175 941.093> -4 83<22.0204 177.913> 739 85<29.7034 192.782 726.62 915.12>
LayerCount: 3
Fore
SplineSet
285 103 m 0x60
 285 50 376 94 376 38 c 0
 376 23 369 -4 327 -4 c 0
 276 -4 302 0 72 0 c 0
 46 0 22 9 22 37 c 0
 22 70 50 79 71 79 c 2
 107 79 l 2x60
 143 79 147 81 169 107 c 0
 207 150 405 426 405 426 c 1
 195 707 184 723 126 739 c 0
 67 755 29 738 29 792 c 0
 29 808 49 824 78 824 c 0
 92 824 170 821 264 821 c 0
 352 821 373 825 389 825 c 0
 419 825 450 815 450 788 c 0
 450 736 371 774 371 718 c 0
 371 696 494 537 494 537 c 1
 494 537 622 696 622 724 c 0
 622 765 546 741 546 788 c 0
 546 815 572 824 602 824 c 0
 615 824 668 822 715 822 c 0
 745 822 840 828 857 828 c 0
 909 828 916 802 916 790 c 0
 916 725 839 763 778 735 c 0
 752 723 724 698 698 663 c 2
 546 462 l 1
 791 130 809 108 827 94 c 0
 862 66 942 103 942 40 c 0
 942 3 920 -4 892 -4 c 0xa0
 857 -4 840 0 718 0 c 0
 683 0 568 -4 542 -4 c 0
 516 -4 492 11 492 32 c 0
 492 102 618 57 618 99 c 0
 618 133 456 348 456 348 c 1
 456 348 285 140 285 103 c 0x60
EndSplineSet
EndChar

StartChar: y
Encoding: 121 121 24
Width: 1031
VWidth: 870
Flags: HW
HStem: 752 81<374 464.679 609.076 690 886.008 1003.22>
VStem: 46 294<694 803> 742 264<644 819.5>
LayerCount: 3
Fore
SplineSet
742 692 m 0
 742 737 711 745 690 748 c 2
 665 752 l 2
 635 756 609 762 609 794 c 0
 609 821 625 833 655 833 c 0
 668 833 714 828 791 828 c 0
 821 828 948 836 971 836 c 0
 989 836 1006 829 1006 810 c 0
 1006 773 978 760 948 749 c 0
 888 726 895 749 804 549 c 1
 657 220 482 -169 357 -300 c 0
 314 -344 273 -367 232 -367 c 0
 176 -367 153 -341 153 -293 c 0
 153 -257 191 -232 237 -209 c 0
 291 -182 305 -188 365 -120 c 0
 418 -59 469 23 469 30 c 0
 469 34 320 416 152 721 c 0
 120 778 46 745 46 799 c 0
 46 807 51 835 101 835 c 0
 115 835 139 828 233 828 c 0
 321 828 390 838 423 838 c 0
 453 838 465 825 465 798 c 0
 465 766 438 761 410 755 c 2
 374 747 l 2
 355 743 340 736 340 717 c 0
 340 671 543 220 562 220 c 0
 576 220 742 596 742 692 c 0
EndSplineSet
EndChar

StartChar: z
Encoding: 122 122 25
Width: 756
VWidth: 870
Flags: W
HStem: 0 136<236.029 587.771> 685 139<214.914 477.987>
VStem: 125 91<824 917.186> 590 86<-172.949 -13.4303> 647 84<158.441 312.677>
LayerCount: 3
Fore
SplineSet
138.353091647 573.286693716 m 0xf0
 113.35464473 573.286693716 105 592 105 618 c 0
 105 660 125 731 125 800 c 2
 125 823 l 2
 125 846 129 918 178 918 c 0
 208 918 216 875 216 851 c 0
 216 836 220 824 255 824 c 2
 631 824 l 2
 679 824 681 823 681 795 c 2
 681 790 l 2
 681 755 586 675 498 545 c 0
 329 292 236 193 236 166 c 0
 236 142 275 136 534 136 c 0
 593 136 617 136 647 260 c 0
 654 291 670 314 700 314 c 0
 710 314 731 306 731 270 c 0xe8
 731 213 688 50 676 -64 c 0
 672 -103 677 -173 634 -173 c 0
 607 -173 590 -155 590 -131 c 2
 590 -57 l 2
 590 -28 582 0 458 0 c 2
 67 0 l 2
 33 0 33 16 33 35 c 0
 33 57 46 81 48 84 c 2
 432 600 l 2
 463 642 478 661 478 672 c 0
 478 683 460 685 410 685 c 2
 273 685 l 2
 145 685 197.708183864 573.286693716 138.353091647 573.286693716 c 0xf0
EndSplineSet
EndChar

StartChar: B
Encoding: 66 66 27
Width: 1178
VWidth: 0
Flags: HW
HStem: -10 90<24.1673 214.438 427.196 799.878> 721 65<410.045 738.765> 1287 105<29.4375 228.612 410 725.371>
VStem: 238 172<103.791 720.995 786 1279.39> 860 198<916.742 1174.99> 960 176<235.161 555.859>
LayerCount: 3
Fore
SplineSet
454 721 m 0xf4
 405 721 404 715 404 653 c 0
 404 578 403 615 403 277 c 0
 403 116 412 80 606 80 c 0
 889 80 960 283 960 399 c 0
 960 615 760 690 686 704 c 0
 635 714 561 721 454 721 c 0xf4
512 786 m 2
 674 786 860 793 860 1036 c 0xf8
 860 1244 672 1288 466 1288 c 0
 418 1288 410 1273 410 1243 c 2
 410 816 l 2
 410 795 430 786 451 786 c 2
 512 786 l 2
624 1392 m 0
 958 1392 1058 1189 1058 1080 c 0
 1058 862 860 770 860 770 c 1xf8
 860 770 1136 698 1136 420 c 0xf4
 1136 -4 675 -10 642 -10 c 0
 576 -10 373 6 292 6 c 0
 224 6 140 -10 82 -10 c 0
 29 -10 24 12 24 42 c 0
 24 55 36 90 74 90 c 0
 94 90 125 92 145 92 c 0
 199 92 223 121 225 157 c 0
 237 427 238 618 238 833 c 0
 238 972 235 1007 235 1181 c 0
 235 1257 225 1287 135 1287 c 2
 92 1287 l 2
 60 1287 28 1300 28 1338 c 0
 28 1348 36 1392 88 1392 c 0
 220 1392 292 1389 390 1389 c 0
 463 1389 534 1392 624 1392 c 0
EndSplineSet
EndChar

StartChar: O
Encoding: 79 79 40
Width: 1543
VWidth: -23
Flags: W
HStem: -32 93<596.699 1028.31> 1330 100<520.027 968.148>
VStem: 55 197<485.564 971.004> 1292 197<419.554 967.658>
LayerCount: 3
Fore
SplineSet
793 -32 m 0
 293 -32 55 300 55 705 c 0
 55 1106 318 1430 750 1430 c 0
 1250 1430 1489 1114 1489 685 c 0
 1489 286 1245 -32 793 -32 c 0
744 1330 m 0
 460 1330 252 1177 252 793 c 0
 252 445 407 61 813 61 c 0
 1212 61 1292 375 1292 691 c 0
 1292 1081 1079 1330 744 1330 c 0
EndSplineSet
EndChar

StartChar: ae
Encoding: 230 230 53
Width: 1325
VWidth: 0
Flags: HW
HStem: -26 120<772.617 1058.2> -21 75<266.304 452.671> 765 95<697.953 942.544> 791 76<259.582 447.498>
VStem: 71 155<85.4641 317.325> 503 124<465.678 694.834> 1014 218<589.062 698.742>
LayerCount: 3
Fore
SplineSet
871 860 m 0x2e
 1067 860 1232 690 1232 635 c 0
 1232 595 1153 572 974 509 c 2
 638 390 l 1
 638 390 660 94 922 94 c 0
 1107 94 1179 229 1218 229 c 0
 1237 229 1250 217 1250 200 c 0
 1250 146 1086 -26 881 -26 c 0xae
 639 -26 566 154 566 154 c 1
 566 154 534 -21 284 -21 c 0
 115 -21 71 82 71 181 c 0
 71 238 105 363 226 402 c 0
 486 486 503 454 503 509 c 2
 503 543 l 2
 503 688 475 791 342 791 c 0
 213 791 226 619 141 619 c 0
 123 619 62 629 62 702 c 0
 62 787 222 867 358 867 c 0x5e
 444 867 550 846 608 736 c 1
 684 837 793 860 871 860 c 0x2e
627 504 m 0
 627 479 630 460 630 460 c 1
 984 588 l 2
 1012 598 1014 613 1014 632 c 0
 1014 684 904 765 801 765 c 0
 711 765 627 703 627 504 c 0
356 54 m 0x4e
 385 54 512 75 512 224 c 2
 512 420 l 1
 274 368 226 348 226 221 c 0
 226 121 262 54 356 54 c 0x4e
EndSplineSet
EndChar

StartChar: oe
Encoding: 339 339 54
Width: 1616
VWidth: 0
Flags: HW
HStem: -26 124<1063.64 1354.65> -17 73<377.479 634.866> 768 99<990.048 1217.2> 791 68<371.859 607.615>
VStem: 70 158<230.749 622.048> 775 129<271.969 390 459 618.721> 1310 206<590.522 686.167>
LayerCount: 3
Fore
SplineSet
491 791 m 0x5e
 328 791 228 646 228 427 c 0
 228 176 343 56 517 56 c 0
 652 56 775 169 775 414 c 0
 775 643 643 791 491 791 c 0x5e
904 459 m 1
 1279 595 l 2
 1307 606 1310 611 1310 628 c 0
 1310 654 1205 768 1082 768 c 0x2e
 913 768 904 525 904 470 c 2
 904 459 l 1
1527 208 m 0
 1527 116.424804688 1358.41503906 -26 1181 -26 c 0xae
 894 -26 837 178 837 178 c 1
 837 178 752 -17 499 -17 c 0
 156 -17 70 282 70 426 c 0
 70 638 212 859 498 859 c 0x5e
 776 859 844 667 844 667 c 1
 845 668 929 867 1163 867 c 0
 1360 867 1516 685 1516 630 c 0
 1516 606 1499 587 1459 574 c 2
 912 390 l 1
 912 336 975 98 1229 98 c 0xae
 1393 98 1453 235 1497 235 c 0
 1508 235 1527 230 1527 208 c 0
EndSplineSet
EndChar

StartChar: f_f
Encoding: 65536 -1 55
Width: 1024
VWidth: 0
Flags: HMW
HStem: 0 78<304 427 748 880> 752 78<56 169 295 599 730 1000> 1310 81<433 624> 1330 104<871 1085>
VStem: 165 128<83 752 830 1054> 599 129<89 752 830 1119>
LayerCount: 3
Fore
SplineSet
600 1391 m 0
 707 1391 781 1336 781 1336 c 1
 849 1400 946 1435 1030 1435 c 0
 1127 1435 1154 1389 1154 1355 c 0
 1154 1318 1123 1282 1072 1282 c 0
 1018 1282 993 1330 934 1330 c 0
 784 1330 726 1102 726 878 c 2
 726 830 l 1
 977 830 l 2
 990 830 1000 823 1000 792 c 0
 1000 753 990 752 977 752 c 2
 730 752 l 1
 729 555 728 489 728 445 c 2
 728 295 l 2
 728 84 745 82 835 71 c 0
 870 67 880 53 880 31 c 0
 880 16 864 -4 822 -4 c 0
 759 -4 729 0 666 0 c 0
 631 0 551 -4 525 -4 c 0
 499 -4 472 7 472 28 c 0
 472 98 599 34 599 158 c 0
 599 440 599 412 599 440 c 2
 599 752 l 1
 295 752 l 1
 294 555 293 489 293 445 c 0
 293 388 293 329 293 272 c 0
 293 83 295 82 381 71 c 0
 416 67 427 53 427 31 c 0
 427 16 412 -4 370 -4 c 0
 329 -4 294 0 231 0 c 0
 196 0 120 -4 94 -4 c 0
 68 -4 42 7 42 28 c 0
 42 112 165 29 165 158 c 0
 165 235 165 311 165 388 c 0
 165 455 166 544 169 752 c 1
 80 752 l 2
 67 752 56 752 56 786 c 0
 56 823 67 830 80 830 c 2
 173 830 l 1
 173 1184 362 1391 600 1391 c 0
675 1213 m 1
 675 1213 618 1310 530 1310 c 0
 465 1310 295 1248 295 830 c 1
 602 830 l 1
 602 865 l 2
 602 1095 675 1213 675 1213 c 1
EndSplineSet
Ligature2: "liga subtable" f f
LCarets2: 1 0 
EndChar

StartChar: f_i
Encoding: 65537 -1 56
Width: 910
VWidth: 870
Flags: HMW
HStem: 0 78<297 431> 752 78<34 155 286 597> 828 17G<672 719> 1336 98<446 662>
VStem: 155 130<85 752 830 1099> 625 131<87 726>
LayerCount: 3
Fore
SplineSet
694 0 m 0
 617 0 592 -4 523 -4 c 0
 497 -4 471 7 471 28 c 0
 471 113 615 13 620 171 c 2
 620 171 625 297 625 320 c 0
 625 394 621 502 619 626 c 0
 618 717 593 753 463 753 c 0
 418 753 359 752 286 752 c 1
 285 555 284 489 284 445 c 2
 284 284 l 2
 284 83 285 87 385 72 c 0
 420 67 432 53 432 31 c 0
 432 16 416 -4 374 -4 c 0
 311 -4 281 0 218 0 c 0
 183 0 107 -4 81 -4 c 0
 55 -4 29 7 29 28 c 0
 29 112 154 29 154 158 c 0
 154 440 155 412 155 440 c 2
 155 752 l 1
 58 752 l 2
 45 752 34 753 34 790 c 0
 34 827 45 830 58 830 c 2
 159 830 l 1
 159 865 l 2
 159 908 161 1109 259 1239 c 0
 336 1342 461 1435 606 1435 c 0
 716 1435 750 1379 750 1345 c 0
 750 1308 719 1265 668 1265 c 0
 614 1265 571 1336 496 1336 c 0
 367 1336 282 1150 282 860 c 2
 282 830 l 1
 554 830 633 846 710 846 c 0
 727 846 762 832 762 799 c 0
 762 747 756 741 756 320 c 0
 756 102 768 96 809 79 c 0
 872 54 873 37 873 31 c 0
 873 16 857 -4 815 -4 c 0
 790 -4 710 0 694 0 c 0
EndSplineSet
Ligature2: "liga subtable" f i
LCarets2: 1 0 
EndChar

StartChar: f_l
Encoding: 65538 -1 57
Width: 956
VWidth: 870
Flags: HMW
HStem: 0 78<313 440 799 908> 752 78<51 172 304 534> 1335 98<403 592>
VStem: 172 130<86 752 830 1141> 651 130<90 1270>
LayerCount: 3
Fore
SplineSet
492 1335 m 0
 342 1335 299 1102 299 878 c 2
 299 830 l 1
 512 830 l 2
 525 830 534 823 534 792 c 0
 534 753 525 752 512 752 c 2
 304 752 l 1
 303 555 302 489 302 445 c 2
 302 295 l 2
 302 84 304 87 394 76 c 0
 429 72 440 53 440 31 c 0
 440 16 425 -4 383 -4 c 0
 320 -4 298 0 235 0 c 0
 200 0 124 -4 98 -4 c 0
 72 -4 46 7 46 28 c 0
 46 112 171 29 171 158 c 0
 171 440 172 412 172 440 c 2
 172 752 l 1
 76 752 l 2
 63 752 51 753 51 790 c 0
 51 827 63 830 76 830 c 2
 177 830 l 1
 177 884 l 2
 177 1215 298 1316 355 1362 c 0
 412 1408 466 1434 576 1434 c 0
 640 1434 692 1409 705 1409 c 0
 713 1409 747 1438 765 1438 c 0
 789 1438 791 1423 791 1380 c 2
 791 1345 l 2
 791 1160 781 1345 781 231 c 0
 781 109 805 84 870 69 c 0
 904 61 908 48 908 29 c 0
 908 14 896 -4 854 -4 c 0
 843 -4 772 0 716 0 c 0
 701 0 565 -4 536 -4 c 0
 510 -4 484 7 484 28 c 0
 484 103 651 25 651 163 c 2
 651 1086 l 2
 651 1210 624 1335 492 1335 c 0
EndSplineSet
Ligature2: "liga subtable" f l
LCarets2: 1 0 
EndChar

StartChar: f_f_i
Encoding: 65539 -1 58
Width: 1405
VWidth: 870
Flags: HMW
HStem: 0 78<299 442> -4 77<780 914> 752 78<56 169 295 638 769 1097> 828 17G<1172 1231> 1315 86<439 629> 1349 91<905 1150>
VStem: 165 128<86 752 830 1070> 638 130<85 752 830 1161> 1125 131<91 726>
LayerCount: 3
Fore
SplineSet
693 1200 m 1
 693 1200 635 1315 530 1315 c 0
 460 1315 295 1248 295 830 c 1
 642 830 l 1
 642 865 l 2
 642 1128 693 1200 693 1200 c 1
1182 1265 m 0
 1118 1265 1072 1349 965 1349 c 0
 836 1349 765 1150 765 860 c 2
 765 830 l 1
 1037 830 1133 846 1210 846 c 0
 1251 846 1262 832 1262 799 c 0
 1262 747 1256 741 1256 320 c 0
 1256 102 1268 96 1309 79 c 0
 1372 54 1373 37 1373 31 c 0
 1373 16 1357 -4 1315 -4 c 0
 1290 -4 1211 0 1195 0 c 0
 1118 0 1092 -4 1023 -4 c 0
 997 -4 971 7 971 28 c 0
 971 113 1117 22 1121 171 c 2
 1121 171 1125 297 1125 320 c 0
 1125 394 1122 502 1120 626 c 0
 1119 717 1093 753 963 753 c 0
 918 753 842 752 769 752 c 1
 768 555 767 489 767 445 c 2
 767 284 l 2
 767 83 768 87 868 72 c 0
 903 67 914 53 914 31 c 0
 914 16 899 -4 857 -4 c 0
 794 -4 763 0 700 0 c 0
 665 0 581 -4 555 -4 c 0
 529 -4 503 7 503 28 c 0
 503 112 637 29 637 158 c 0
 637 440 638 412 638 440 c 2
 638 752 l 1
 295 752 l 1
 294 555 293 489 293 445 c 0
 293 388 293 329 293 272 c 0
 293 143 294 102 322 85 c 0
 357 64 445 88 445 31 c 0
 445 16 429 -4 387 -4 c 0
 346 -4 294 0 231 0 c 0
 196 0 103 -4 77 -4 c 0
 51 -4 24 7 24 28 c 0
 24 112 165 29 165 158 c 0
 165 235 165 311 165 388 c 0
 165 455 166 544 169 752 c 1
 80 752 l 2
 67 752 56 752 56 786 c 0
 56 823 67 830 80 830 c 2
 173 830 l 1
 173 1155 295 1265 388 1331 c 0
 452 1377 513 1401 600 1401 c 0
 715 1401 792 1331 792 1331 c 1
 792 1331 897 1441 1094 1441 c 0
 1204 1441 1259 1385 1259 1345 c 0
 1259 1305 1224 1265 1182 1265 c 0
EndSplineSet
Ligature2: "liga subtable" f f i
LCarets2: 2 0 0 
EndChar

StartChar: f_f_l
Encoding: 65540 -1 59
Width: 1405
VWidth: 870
Flags: HMW
HStem: 0 78<299 442> -4 77<780 914 1258 1378> 752 78<56 169 295 638 769 982> 1315 86<439 629> 1335 98<895 1059>
VStem: 165 128<86 752 830 1070> 638 130<85 752 830 1158> 1112 130<87 1278>
LayerCount: 3
Fore
SplineSet
693 1200 m 1
 693 1200 635 1315 530 1315 c 0
 460 1315 295 1248 295 830 c 1
 642 830 l 1
 642 865 l 2
 642 1128 693 1200 693 1200 c 1
961 1335 m 0
 843 1335 765 1238 765 860 c 2
 765 830 l 1
 960 830 l 2
 973 830 982 823 982 792 c 0
 982 753 973 752 960 752 c 2
 769 752 l 1
 768 555 767 489 767 445 c 2
 767 284 l 2
 767 83 768 87 868 72 c 0
 903 67 914 53 914 31 c 0
 914 16 899 -4 857 -4 c 0
 794 -4 763 0 700 0 c 0
 665 0 581 -4 555 -4 c 0
 529 -4 503 7 503 28 c 0
 503 112 637 29 637 158 c 0
 637 440 638 412 638 440 c 2
 638 752 l 1
 295 752 l 1
 294 555 293 489 293 445 c 0
 293 388 293 329 293 272 c 0
 293 143 294 102 322 85 c 0
 357 64 445 88 445 31 c 0
 445 16 429 -4 387 -4 c 0
 346 -4 294 0 231 0 c 0
 196 0 103 -4 77 -4 c 0
 51 -4 24 7 24 28 c 0
 24 112 165 29 165 158 c 0
 165 235 165 311 165 388 c 0
 165 455 166 544 169 752 c 1
 80 752 l 2
 67 752 56 752 56 786 c 0
 56 823 67 830 80 830 c 2
 173 830 l 1
 173 1155 295 1265 388 1331 c 0
 452 1377 513 1401 600 1401 c 0
 715 1401 792 1331 792 1331 c 1
 792 1331 909 1434 1046 1434 c 0
 1110 1434 1153 1409 1166 1409 c 0
 1174 1409 1208 1438 1226 1438 c 0
 1250 1438 1252 1423 1252 1380 c 2
 1252 1345 l 2
 1252 1160 1242 1345 1242 231 c 0
 1242 109 1249 86 1335 69 c 0
 1369 62 1378 48 1378 29 c 0
 1378 14 1366 -4 1324 -4 c 0
 1313 -4 1233 0 1177 0 c 0
 1162 0 1026 -4 997 -4 c 0
 971 -4 945 7 945 28 c 0
 945 103 1112 25 1112 163 c 2
 1112 1086 l 2
 1112 1210 1093 1335 961 1335 c 0
EndSplineSet
Ligature2: "liga subtable" f f l
LCarets2: 2 0 0 
EndChar

StartChar: f_j
Encoding: 65541 -1 60
Width: 910
VWidth: 870
Flags: HMW
HStem: -475 169<370 543> 0 78<297 431> 752 78<34 155 286 597> 828 17G<672 719> 1336 98<446 662>
VStem: 155 130<85 752 830 1099> 629 130<-235 724>
LayerCount: 3
Fore
SplineSet
760 -69 m 2
 760 -113 758 -189 723 -235 c 0
 573 -435 512 -475 427 -475 c 0
 378 -475 352 -441 352 -404 c 0
 352 -332 413 -306 448 -306 c 0
 474 -306 503 -318 530 -318 c 0
 627 -318 629 -184 629 -26 c 0
 629 82 626 502 624 626 c 0
 623 717 593 753 463 753 c 0
 418 753 359 752 286 752 c 1
 285 555 284 489 284 445 c 2
 284 284 l 2
 284 83 285 87 385 72 c 0
 420 67 432 53 432 31 c 0
 432 16 416 -4 374 -4 c 0
 311 -4 281 0 218 0 c 0
 183 0 107 -4 81 -4 c 0
 55 -4 29 7 29 28 c 0
 29 112 154 29 154 158 c 0
 154 440 155 412 155 440 c 2
 155 752 l 1
 58 752 l 2
 45 752 34 753 34 790 c 0
 34 827 45 830 58 830 c 2
 159 830 l 1
 159 865 l 2
 159 908 161 1109 259 1239 c 0
 336 1342 461 1435 606 1435 c 0
 716 1435 750 1379 750 1345 c 0
 750 1308 719 1265 668 1265 c 0
 614 1265 571 1336 496 1336 c 0
 367 1336 282 1150 282 860 c 2
 282 830 l 1
 554 830 633 846 710 846 c 0
 727 846 762 832 762 799 c 0
 762 776 760 386 760 238 c 2
 760 -69 l 2
EndSplineSet
Ligature2: "liga subtable" f j
LCarets2: 1 0 
EndChar

StartChar: f_f_j
Encoding: 65542 -1 61
Width: 1405
VWidth: 870
Flags: HMW
HStem: -475 169<866 1039> 0 78<299 442> -4 77<780 914> 752 78<56 169 295 638 769 1099> 828 17G<1168 1231> 1315 86<439 629> 1349 91<905 1150>
VStem: 165 128<86 752 830 1055> 638 130<85 752 830 1161> 1125 130<-235 726>
LayerCount: 3
Fore
SplineSet
693 1200 m 1
 693 1200 635 1315 530 1315 c 0
 460 1315 295 1248 295 830 c 1
 642 830 l 1
 642 865 l 2
 642 1128 693 1200 693 1200 c 1
963 753 m 0
 918 753 842 752 769 752 c 1
 768 555 767 489 767 445 c 2
 767 284 l 2
 767 83 768 87 868 72 c 0
 903 67 914 53 914 31 c 0
 914 16 899 -4 857 -4 c 0
 794 -4 763 0 700 0 c 0
 665 0 581 -4 555 -4 c 0
 529 -4 503 7 503 28 c 0
 503 112 637 29 637 158 c 0
 637 440 638 412 638 440 c 2
 638 752 l 1
 295 752 l 1
 294 555 293 489 293 445 c 0
 293 388 293 329 293 272 c 0
 293 143 294 102 322 85 c 0
 357 64 445 88 445 31 c 0
 445 16 429 -4 387 -4 c 0
 346 -4 294 0 231 0 c 0
 196 0 103 -4 77 -4 c 0
 51 -4 24 7 24 28 c 0
 24 112 165 29 165 158 c 0
 165 235 165 311 165 388 c 0
 165 455 166 544 169 752 c 1
 80 752 l 2
 67 752 56 752 56 786 c 0
 56 823 67 830 80 830 c 2
 173 830 l 1
 173 1184 362 1401 600 1401 c 0
 715 1401 792 1331 792 1331 c 1
 792 1331 897 1441 1094 1441 c 0
 1204 1441 1259 1385 1259 1345 c 0
 1259 1305 1224 1265 1182 1265 c 0
 1118 1265 1072 1349 965 1349 c 0
 836 1349 765 1150 765 860 c 2
 765 830 l 1
 1037 830 1129 846 1206 846 c 0
 1256 846 1262 832 1262 799 c 0
 1262 776 1255 386 1255 238 c 2
 1255 -69 l 2
 1255 -113 1254 -189 1219 -235 c 0
 1069 -435 1008 -475 923 -475 c 0
 874 -475 848 -441 848 -404 c 0
 848 -332 909 -306 944 -306 c 0
 970 -306 999 -318 1026 -318 c 0
 1123 -318 1125 -184 1125 -26 c 0
 1125 82 1122 502 1120 626 c 0
 1119 717 1093 753 963 753 c 0
EndSplineSet
Ligature2: "liga subtable" f f j
LCarets2: 2 0 0 
EndChar

StartChar: c_t
Encoding: 65543 -1 62
Width: 1453
VWidth: 870
Flags: HW
HStem: -23 111<351.859 645.247 1081.11 1266.72> 711 116<1081 1366.67> 746 107<301.207 518.884> 1086 77<717.799 957.27>
VStem: 46 128<299.099 594.234> 556 90<819.343 1020.73> 910 142<113.703 711> 983 98<851.305 1059.41>
LayerCount: 3
Fore
SplineSet
787 136 m 0xbd
 787 82.2265625 606.784375 -23 456 -23 c 0
 187 -23 46 152 46 359 c 0
 46 457 61 568 121 646 c 0
 250 816 381 853 456 853 c 0xbd
 535 853 561 819 561 819 c 1
 561 819 556 841 556 864 c 0
 556 903 584 1163 840 1163 c 0
 1094 1163 1078 966 1081 827 c 1xdd
 1338 827 l 2
 1356 827 1373 820 1373 805 c 0
 1373 799 1373 802 1370 776 c 0
 1363 704 1330 703 1314 703 c 0
 1301 703 1292 704 1279 704 c 2
 1060 711 l 1
 1057 574 1052 319 1052 305 c 0
 1052 132 1093 85 1161 85 c 0
 1256 85 1297 177 1338 177 c 0
 1347 177 1368 171 1368 146 c 0
 1368 84 1237 -31 1102 -31 c 0
 989 -31 910 24 910 257 c 0
 910 353 920 587 920 694 c 2
 920 711 l 1
 799 711 l 2xde
 777 711 765 712 765 730 c 0
 765 769 983 792 983 966 c 0
 983 1045 946 1086 830 1086 c 0
 671 1086 646 935 646 879 c 0
 646 846 646 822 652 804 c 0
 669 752 709 725 709 692 c 0
 709 655 632 621 623 621 c 0
 553 621 542 746 401 746 c 0
 256 746 174 630 174 472 c 0
 174 313 308 88 482 88 c 0
 671 88 724 162 763 162 c 0
 771 162 787 158 787 136 c 0xbd
EndSplineSet
Ligature2: "dlig subtable" c t
LCarets2: 1 6 
EndChar

StartChar: s_t
Encoding: 65544 -1 63
Width: 1325
VWidth: 870
Flags: MWO
HStem: -35 117<948.826 1124.53> -24 89<210.562 503.945> 705 126<943 1223.53> 750 89<197.672 434.975> 1146 77<576.728 793.334>
VStem: 49 88<130.871 340.117> 78 99<562.045 728.894> 405 88<802.502 1068.6> 489 82<578.489 700.727> 552 95<109.33 287.291> 782 139<108.016 712> 839 104<869.863 1104.39>
LayerCount: 3
Fore
SplineSet
1026 82 m 0
 1114 82 1166 180 1210 180 c 0
 1232 180 1239 159 1239 145 c 0
 1239 101 1126 -35 988 -35 c 0
 867 -35 782 18 782 251 c 2
 782 712 l 1
 655 712 l 2
 624 712 621 727 621 750 c 0
 621 769 650 778 686 791 c 0
 799 832 839 928 839 1001 c 0
 839 1086 782 1146 692 1146 c 0
 521 1146 493 979 493 923 c 0
 493 809 528 777 548 693 c 0
 555 662 571 636 571 611 c 0
 571 595 566 573 555 573 c 0
 500 573 512 621 489 663 c 0
 465 706 380 750 300 750 c 0
 229 750 177 710 177 647 c 0
 177 549 263 540 371 511 c 0
 494 479 647 441 647 241 c 0
 647 82 507 -24 332 -24 c 0
 236 -24 42 29 42 99 c 0
 42 122 49 256 49 279 c 0
 49 329 69 341 85 341 c 0
 143 341 110 264 137 189 c 1
 169 104 287 65 378 65 c 0
 508 65 552 147 552 219 c 0
 552 275 510 303 347 349 c 0
 296 364 263 375 241 379 c 0
 162 394 78 432 78 601 c 0
 78 665 141 839 313 839 c 0
 404 839 436 802 436 802 c 1
 436 802 405 893 405 937 c 0
 405 1016 469 1223 685 1223 c 0
 949 1223 940 960 943 821 c 1
 1032 824 1201 831 1210 831 c 0
 1227 831 1239 822 1239 806 c 2
 1239 780 l 2
 1239 765 1236 740 1224 723 c 0
 1214 708 1206 705 1183 705 c 0
 1171 705 1104 706 1081 707 c 2
 926 712 l 1
 923 575 921 313 921 299 c 0
 921 126 958 82 1026 82 c 0
EndSplineSet
Ligature2: "dlig subtable" s t
LCarets2: 1 0 
EndChar

StartChar: f_b
Encoding: 65545 -1 64
Width: 1496
VWidth: 870
Flags: HMW
HStem: -23 73<814 1140> 0 78<313 440> 752 78<51 172 304 534> 753 103<892 1119> 1335 98<403 611>
VStem: 172 130<86 752 830 1141> 627 139<93 424> 652 131<734 1294> 1309 132<245 547>
LayerCount: 3
Fore
SplineSet
492 1335 m 0
 342 1335 299 1102 299 878 c 2
 299 830 l 1
 512 830 l 2
 525 830 534 823 534 792 c 0
 534 753 525 752 512 752 c 2
 304 752 l 1
 303 555 302 489 302 445 c 2
 302 295 l 2
 302 84 304 87 394 76 c 0
 429 72 440 53 440 31 c 0
 440 16 425 -4 383 -4 c 0
 320 -4 298 0 235 0 c 0
 200 0 124 -4 98 -4 c 0
 72 -4 46 7 46 28 c 0
 46 112 171 29 171 158 c 0
 171 440 172 412 172 440 c 2
 172 752 l 1
 76 752 l 2
 63 752 51 753 51 790 c 0
 51 827 63 830 76 830 c 2
 177 830 l 1
 177 884 l 2
 177 1215 298 1316 355 1362 c 0
 412 1408 466 1434 576 1434 c 0
 640 1434 692 1409 705 1409 c 0
 713 1409 747 1438 765 1438 c 0
 787 1438 791 1426 791 1392 c 2
 784 731 l 1
 784 731 881 856 1038 856 c 0
 1341 856 1442 595 1442 431 c 0
 1442 201 1275 -23 972 -23 c 0
 876 -23 796 0 745 0 c 0
 708 0 676 -21 646 -21 c 0
 629 -21 627 -11 627 3 c 0
 627 147 652 282 652 1149 c 0
 652 1228 649 1335 492 1335 c 0
766 211 m 2
 766 111 792 50 989 50 c 0
 1193 50 1309 207 1309 375 c 0
 1309 599 1145 753 973 753 c 0
 817 753 766 635 766 593 c 2
 766 211 l 2
EndSplineSet
Ligature2: "liga subtable" f b
LCarets2: 1 0 
EndChar

StartChar: f_h
Encoding: 65546 -1 65
Width: 1517
VWidth: 870
Flags: HMW
HStem: 0 78<313 440 1052 1191 1362 1457> 752 78<51 172 304 534> 762 91<887 1105> 1335 98<403 595>
VStem: 172 130<86 752 830 1141> 654 132<91 702 744 1267> 1210 141<90 622>
LayerCount: 3
Fore
SplineSet
492 1335 m 0
 342 1335 299 1102 299 878 c 2
 299 830 l 1
 512 830 l 2
 525 830 534 823 534 792 c 0
 534 753 525 752 512 752 c 2
 304 752 l 1
 303 555 302 489 302 445 c 2
 302 295 l 2
 302 84 304 87 394 76 c 0
 429 72 440 53 440 31 c 0
 440 16 425 -4 383 -4 c 0
 320 -4 298 0 235 0 c 0
 200 0 124 -4 98 -4 c 0
 72 -4 46 7 46 28 c 0
 46 112 171 29 171 158 c 0
 171 440 172 412 172 440 c 2
 172 752 l 1
 76 752 l 2
 63 752 51 753 51 790 c 0
 51 827 63 830 76 830 c 2
 177 830 l 1
 177 884 l 2
 177 1215 298 1316 355 1362 c 0
 412 1408 466 1434 576 1434 c 0
 640 1434 689 1409 702 1409 c 0
 710 1409 744 1438 762 1438 c 0
 786 1438 788 1423 788 1380 c 2
 786 744 l 1
 786 744 888 853 1042 853 c 0
 1098 853 1287 829 1333 565 c 0
 1346 491 1351 320 1351 190 c 0
 1351 109 1374 87 1397 77 c 0
 1416 69 1457 67 1457 31 c 0
 1457 16 1442 -4 1400 -4 c 0
 1337 -4 1307 0 1244 0 c 0
 1209 0 1134 -4 1108 -4 c 0
 1082 -4 1051 7 1051 28 c 0
 1051 58 1071 67 1096 71 c 0
 1166 84 1210 61 1210 263 c 0
 1210 566 1187 762 983 762 c 0
 920 762 786 711 786 627 c 0
 786 597 780 505 780 321 c 0
 780 224 784 144 785 138 c 0
 804 30 948 108 948 31 c 0
 948 16 933 -4 891 -4 c 0
 835 -4 782 0 718 0 c 0
 689 0 602 -4 559 -4 c 0
 533 -4 506 7 506 28 c 0
 506 118 646 13 646 179 c 0
 646 253 654 436 654 903 c 0
 654 1201 648 1335 492 1335 c 0
EndSplineSet
Ligature2: "liga subtable" f h
LCarets2: 1 0 
EndChar

StartChar: f_k
Encoding: 65547 -1 66
Width: 1437
VWidth: 0
Flags: HMW
HStem: 0 78<313 440 798 915 1252 1377> 752 78<51 172 304 534 1167 1333> 1335 98<403 587>
VStem: 172 130<86 752 830 1141> 647 134<86 329 432 1274>
LayerCount: 3
Fore
SplineSet
492 1335 m 0
 342 1335 299 1102 299 878 c 2
 299 830 l 1
 512 830 l 2
 525 830 534 823 534 792 c 0
 534 753 525 752 512 752 c 2
 304 752 l 1
 303 555 302 489 302 445 c 2
 302 295 l 2
 302 84 304 87 394 76 c 0
 429 72 440 53 440 31 c 0
 440 16 425 -4 383 -4 c 0
 320 -4 298 0 235 0 c 0
 200 0 124 -4 98 -4 c 0
 72 -4 46 7 46 28 c 0
 46 112 171 29 171 158 c 0
 171 440 172 412 172 440 c 2
 172 752 l 1
 76 752 l 2
 63 752 51 753 51 790 c 0
 51 827 63 830 76 830 c 2
 177 830 l 1
 177 884 l 2
 177 1215 298 1316 355 1362 c 0
 412 1408 466 1434 576 1434 c 0
 640 1434 692 1409 705 1409 c 0
 713 1409 747 1438 765 1438 c 0
 787 1438 791 1426 791 1392 c 2
 780 432 l 1
 924 583 1036 683 1036 722 c 0
 1036 775 947 754 947 799 c 0
 947 807 950 827 1000 827 c 0
 1014 827 1040 823 1134 823 c 0
 1222 823 1266 827 1282 827 c 0
 1312 827 1334 824 1334 797 c 0
 1334 758 1300 766 1227 747 c 0
 1178 734 1095 653 1031 587 c 2
 939 492 l 1
 1135 243 l 1
 1279 64 1307 76 1342 67 c 0
 1357 64 1377 53 1377 31 c 0
 1377 16 1362 -4 1320 -4 c 0
 1289 -4 1242 0 1164 0 c 0
 1150 0 1051 -4 1022 -4 c 0
 996 -4 970 7 970 28 c 0
 970 89 1065 47 1065 102 c 0
 1065 155 885 366 855 405 c 1
 781 329 l 1
 785 82 792 87 870 68 c 0
 891 63 916 53 916 31 c 0
 916 16 901 -4 859 -4 c 0
 796 -4 778 0 720 0 c 0
 686 0 579 -4 542 -4 c 0
 516 -4 490 7 490 28 c 0
 490 101 646 18 647 177 c 2
 652 1106 l 2
 652 1133 649 1335 492 1335 c 0
EndSplineSet
Ligature2: "liga subtable" f k
LCarets2: 1 0 
EndChar

StartChar: f_f_b
Encoding: 65548 -1 67
Width: 1954
VWidth: 0
Flags: HMW
HStem: -23 73<1279 1605> 0 78<299 442> -4 77<780 914> 752 78<56 169 295 638 769 982> 753 103<1358 1584> 1315 86<439 629> 1335 98<895 1060>
VStem: 165 128<86 752 830 1070> 638 130<85 752 830 1158> 1093 139<93 430> 1112 140<731 1282> 1775 132<245 547>
LayerCount: 3
Fore
SplineSet
1112 1094 m 0
 1112 1222 1088 1335 961 1335 c 0
 843 1335 765 1238 765 860 c 2
 765 830 l 1
 960 830 l 2
 973 830 982 823 982 792 c 0
 982 753 973 752 960 752 c 2
 769 752 l 1
 768 555 767 489 767 445 c 2
 767 284 l 2
 767 83 768 87 868 72 c 0
 903 67 914 53 914 31 c 0
 914 16 899 -4 857 -4 c 0
 794 -4 763 0 700 0 c 0
 665 0 581 -4 555 -4 c 0
 529 -4 503 7 503 28 c 0
 503 112 637 29 637 158 c 0
 637 440 638 412 638 440 c 2
 638 752 l 1
 295 752 l 1
 294 555 293 489 293 445 c 0
 293 388 293 329 293 272 c 0
 293 143 294 102 322 85 c 0
 357 64 445 88 445 31 c 0
 445 16 429 -4 387 -4 c 0
 346 -4 294 0 231 0 c 0
 196 0 103 -4 77 -4 c 0
 51 -4 24 7 24 28 c 0
 24 112 165 29 165 158 c 0
 165 235 165 311 165 388 c 0
 165 455 166 544 169 752 c 1
 80 752 l 2
 67 752 56 752 56 786 c 0
 56 823 67 830 80 830 c 2
 173 830 l 1
 173 1155 295 1265 388 1331 c 0
 452 1377 513 1401 600 1401 c 0
 715 1401 792 1331 792 1331 c 1
 792 1331 909 1434 1046 1434 c 0
 1110 1434 1153 1409 1166 1409 c 0
 1174 1409 1208 1438 1226 1438 c 0
 1246 1438 1252 1428 1252 1401 c 0
 1252 1394 1252 1387 1252 1380 c 2
 1249 731 l 1
 1249 731 1346 856 1503 856 c 0
 1806 856 1907 595 1907 431 c 0
 1907 201 1740 -23 1437 -23 c 0
 1341 -23 1261 0 1210 0 c 0
 1173 0 1142 -21 1112 -21 c 0
 1095 -21 1093 -11 1093 3 c 0
 1093 168 1112 268 1112 1094 c 0
1232 211 m 2
 1232 111 1258 50 1455 50 c 0
 1659 50 1775 207 1775 375 c 0
 1775 599 1610 753 1438 753 c 0
 1282 753 1232 635 1232 593 c 2
 1232 211 l 2
693 1200 m 1
 693 1200 635 1315 530 1315 c 0
 460 1315 295 1248 295 830 c 1
 642 830 l 1
 642 865 l 2
 642 1128 693 1200 693 1200 c 1
EndSplineSet
Ligature2: "liga subtable" f f b
LCarets2: 2 0 0 
EndChar

StartChar: f_f_h
Encoding: 65549 -1 68
Width: 1948
VWidth: 870
Flags: HMW
HStem: 0 78<299 442> -4 77<780 914 1515 1652 1827 1921> 752 78<56 169 295 638 769 982> 762 91<1351 1568> 1315 86<439 629> 1335 98<895 1063>
VStem: 165 128<86 752 830 1070> 638 130<85 752 830 1158> 1118 132<91 702 744 1273> 1674 141<90 622>
LayerCount: 3
Fore
SplineSet
970 28 m 0
 970 118 1109 13 1109 179 c 0
 1109 253 1118 436 1118 903 c 0
 1118 1222 1108 1335 961 1335 c 0
 843 1335 765 1238 765 860 c 2
 765 830 l 1
 960 830 l 2
 973 830 982 823 982 792 c 0
 982 753 973 752 960 752 c 2
 769 752 l 1
 768 555 767 489 767 445 c 2
 767 284 l 2
 767 83 768 87 868 72 c 0
 903 67 914 53 914 31 c 0
 914 16 899 -4 857 -4 c 0
 794 -4 763 0 700 0 c 0
 665 0 581 -4 555 -4 c 0
 529 -4 503 7 503 28 c 0
 503 112 637 29 637 158 c 0
 637 440 638 412 638 440 c 2
 638 752 l 1
 295 752 l 1
 294 555 293 489 293 445 c 0
 293 388 293 329 293 272 c 0
 293 143 294 102 322 85 c 0
 357 64 445 88 445 31 c 0
 445 16 429 -4 387 -4 c 0
 346 -4 294 0 231 0 c 0
 196 0 103 -4 77 -4 c 0
 51 -4 24 7 24 28 c 0
 24 112 165 29 165 158 c 0
 165 235 165 311 165 388 c 0
 165 455 166 544 169 752 c 1
 80 752 l 2
 67 752 56 752 56 786 c 0
 56 823 67 830 80 830 c 2
 173 830 l 1
 173 1155 295 1265 388 1331 c 0
 452 1377 513 1401 600 1401 c 0
 715 1401 792 1331 792 1331 c 1
 792 1331 909 1434 1046 1434 c 0
 1110 1434 1153 1409 1166 1409 c 0
 1174 1409 1208 1438 1226 1438 c 0
 1250 1438 1252 1423 1252 1380 c 2
 1250 744 l 1
 1250 744 1352 853 1506 853 c 0
 1562 853 1751 829 1797 565 c 0
 1810 491 1815 320 1815 190 c 0
 1815 109 1838 87 1861 77 c 0
 1880 69 1921 67 1921 31 c 0
 1921 16 1906 -4 1864 -4 c 0
 1801 -4 1771 0 1708 0 c 0
 1673 0 1597 -4 1571 -4 c 0
 1545 -4 1515 7 1515 28 c 0
 1515 58 1535 67 1560 71 c 0
 1630 84 1674 61 1674 263 c 0
 1674 566 1651 762 1447 762 c 0
 1384 762 1250 711 1250 627 c 0
 1250 597 1244 505 1244 321 c 0
 1244 224 1247 144 1248 138 c 0
 1267 30 1412 108 1412 31 c 0
 1412 16 1397 -4 1355 -4 c 0
 1299 -4 1245 0 1181 0 c 0
 1152 0 1065 -4 1022 -4 c 0
 996 -4 970 7 970 28 c 0
693 1200 m 1
 693 1200 635 1315 530 1315 c 0
 460 1315 295 1248 295 830 c 1
 642 830 l 1
 642 865 l 2
 642 1128 693 1200 693 1200 c 1
EndSplineSet
Ligature2: "liga subtable" f f h
LCarets2: 2 0 0 
EndChar

StartChar: f_f_k
Encoding: 65550 -1 69
Width: 1924
VWidth: 0
Flags: HMW
HStem: 0 78<299 442> -4 77<780 914 1254 1394 1720 1838> 752 78<56 169 295 638 769 982 1628 1794> 1315 86<439 629> 1335 98<895 1071>
VStem: 165 128<86 752 830 1070> 638 130<85 752 830 1158> 1108 134<86 329 432 1298>
LayerCount: 3
Fore
SplineSet
1112 1168 m 0
 1112 1293 1051 1335 961 1335 c 0
 843 1335 765 1238 765 860 c 2
 765 830 l 1
 960 830 l 2
 973 830 982 823 982 792 c 0
 982 753 973 752 960 752 c 2
 769 752 l 1
 768 555 767 489 767 445 c 2
 767 284 l 2
 767 83 768 87 868 72 c 0
 903 67 914 53 914 31 c 0
 914 16 899 -4 857 -4 c 0
 794 -4 763 0 700 0 c 0
 665 0 581 -4 555 -4 c 0
 529 -4 503 7 503 28 c 0
 503 112 637 29 637 158 c 0
 637 440 638 412 638 440 c 2
 638 752 l 1
 295 752 l 1
 294 555 293 489 293 445 c 0
 293 388 293 329 293 272 c 0
 293 143 294 102 322 85 c 0
 357 64 445 88 445 31 c 0
 445 16 429 -4 387 -4 c 0
 346 -4 294 0 231 0 c 0
 196 0 103 -4 77 -4 c 0
 51 -4 24 7 24 28 c 0
 24 112 165 29 165 158 c 0
 165 235 165 311 165 388 c 0
 165 455 166 544 169 752 c 1
 80 752 l 2
 67 752 56 752 56 786 c 0
 56 823 67 830 80 830 c 2
 173 830 l 1
 173 1155 295 1265 388 1331 c 0
 452 1377 513 1401 600 1401 c 0
 715 1401 792 1331 792 1331 c 1
 792 1331 909 1434 1046 1434 c 0
 1110 1434 1153 1409 1166 1409 c 0
 1174 1409 1208 1438 1226 1438 c 0
 1249 1438 1252 1407 1252 1364 c 2
 1241 432 l 1
 1385 583 1497 683 1497 722 c 0
 1497 775 1408 754 1408 799 c 0
 1408 807 1412 827 1462 827 c 0
 1476 827 1502 823 1596 823 c 0
 1684 823 1727 827 1743 827 c 0
 1773 827 1795 824 1795 797 c 0
 1795 758 1761 766 1688 747 c 0
 1639 734 1556 653 1492 587 c 2
 1400 492 l 1
 1596 243 l 1
 1740 64 1769 76 1804 67 c 0
 1819 64 1838 53 1838 31 c 0
 1838 16 1823 -4 1781 -4 c 0
 1750 -4 1703 0 1625 0 c 0
 1611 0 1512 -4 1483 -4 c 0
 1457 -4 1431 7 1431 28 c 0
 1431 89 1526 47 1526 102 c 0
 1526 155 1346 366 1316 405 c 1
 1242 329 l 1
 1246 82 1232 78 1348 68 c 0
 1370 66 1395 53 1395 31 c 0
 1395 16 1379 -4 1337 -4 c 0
 1274 -4 1239 0 1181 0 c 0
 1147 0 1058 -4 1021 -4 c 0
 995 -4 968 7 968 28 c 0
 968 101 1107 26 1108 177 c 2
 1113 1104 l 2
 1113 1120 1112 1143 1112 1168 c 0
693 1200 m 1
 693 1200 635 1315 530 1315 c 0
 460 1315 295 1248 295 830 c 1
 642 830 l 1
 642 865 l 2
 642 1128 693 1200 693 1200 c 1
EndSplineSet
Ligature2: "liga subtable" f f k
LCarets2: 2 0 0 
EndChar

StartChar: comma
Encoding: 44 44 70
Width: 468
VWidth: 0
Flags: HW
LayerCount: 3
Fore
SplineSet
216 228 m 0
 338 228 392 120 392 0 c 0
 392 -136.718689286 276 -268 164 -268 c 0
 124.216100469 -268 102.876373043 -239.894267381 102.876373043 -216.197724264 c 0
 102.876373043 -198.927925688 114.210639598 -184 138 -184 c 0
 225.386925885 -184 278 -123.73828125 278 -69 c 0
 278 -36.9208984375 265.996878943 -6.34475507447 225 0 c 0
 141 13 91 47.9921875 91 115 c 0
 91 179 150.448493534 228 216 228 c 0
EndSplineSet
EndChar
